<svg width="36" height="36" viewBox="0 0 36 36" fill="none" xmlns="http://www.w3.org/2000/svg">
<path d="M18.8283 13.2779C17.8818 11.9021 16.2962 11 14.5 11C11.6005 11 9.25 13.3505 9.25 16.25C9.25 16.3987 9.25619 16.546 9.26831 16.6917C6.20012 17.7675 4 20.6893 4 24.125V24.125C4 24.6241 4.42575 25 4.92482 25H31.06C31.5638 25 32 24.6288 32 24.125V24.125C32 21.6409 30.5212 19.5022 28.396 18.5412C27.8233 15.2513 24.9538 12.75 21.5 12.75C20.5539 12.75 19.6516 12.9377 18.8283 13.2779Z" fill="#D1D1D6"/>
</svg>
