<svg width="36" height="36" viewBox="0 0 36 36" fill="none" xmlns="http://www.w3.org/2000/svg">
<path d="M16 12C16 11.5503 15.7285 11.1247 15.2838 11.0581C15.0281 11.0198 14.7664 11 14.5 11C11.6005 11 9.25 13.3505 9.25 16.25C9.25 16.3987 9.25619 16.546 9.26831 16.6917C6.20012 17.7675 4 20.6893 4 24.125C4 24.6241 4.42575 25 4.92482 25H31.06C31.5638 25 32 24.6288 32 24.125C32 21.8177 30.6527 19.2806 28.8094 19.0216C28.6093 18.9935 28.4123 19.0639 28.2386 19.1671C27.0076 19.8982 25.5661 20 24 20C19.5817 20 16 16.4183 16 12V12Z" fill="#D1D1D6"/>
<circle cx="24.5" cy="11.5" r="7.5" fill="#FFD748"/>
</svg>
