<svg width="36" height="36" viewBox="0 0 36 36" fill="none" xmlns="http://www.w3.org/2000/svg">
<path d="M18.8283 6.27792C17.8818 4.90208 16.2962 4 14.5 4C11.6005 4 9.25 6.35051 9.25 9.25C9.25 9.39874 9.25619 9.54604 9.26831 9.69165C6.20012 10.7675 4 13.6893 4 17.125V17.125C4 17.6241 4.42575 18 4.92482 18H31.06C31.5638 18 32 17.6288 32 17.125V17.125C32 14.6409 30.5212 12.5022 28.396 11.5412C27.8233 8.2513 24.9538 5.75 21.5 5.75C20.5539 5.75 19.6516 5.93771 18.8283 6.27792Z" fill="#D1D1D6"/>
<line x1="27.4871" y1="21.366" x2="26.3658" y2="23.3082" stroke="#82B3DE" stroke-width="2" stroke-linecap="round"/>
<line x1="21.4871" y1="27.366" x2="20.3658" y2="29.3082" stroke="#82B3DE" stroke-width="2" stroke-linecap="round"/>
<line x1="13.4871" y1="27.366" x2="12.3658" y2="29.3082" stroke="#82B3DE" stroke-width="2" stroke-linecap="round"/>
<line x1="18.4871" y1="21.366" x2="17.3658" y2="23.3082" stroke="#82B3DE" stroke-width="2" stroke-linecap="round"/>
<line x1="9.48712" y1="21.366" x2="8.3658" y2="23.3082" stroke="#82B3DE" stroke-width="2" stroke-linecap="round"/>
</svg>
